<svg id="a636a60e-e184-4d46-9a94-1fa3434355ef"  xmlns="http://www.w3.org/2000/svg" width="135.5mm" height="135.5mm" viewBox="0 0 384 384">
  <g>
    <path d="M384,384H0V0H384ZM83.8,288.2v9.5c0,16.7,0,33.4.1,50.1a11.5,11.5,0,0,0,6.6,10.9c4.4,2.3,8.7,1.6,12.7-1.2,1.3-.9,2.5-2,3.8-3,26.6-21.3,53.2-42.5,79.7-63.9a11.3,11.3,0,0,1,7.5-2.5H333.1a48.5,48.5,0,0,0,11.4-1.2c16.4-4.3,26.9-18.4,26.9-36.1V62.9c0-23.2-15.2-38.3-38.5-38.3H50.6C27.1,24.6,12,39.7,12,63.2V249.5c0,23.6,15,38.7,38.5,38.7Z" style="fill:transparent"/>
    <path d="M83.8,288.2H50.5C27,288.2,12,273.1,12,249.5V63.2c0-23.5,15.1-38.6,38.6-38.6H332.9c23.3,0,38.5,15.1,38.5,38.3V250.8c0,17.7-10.5,31.8-26.9,36.1a48.5,48.5,0,0,1-11.4,1.2H194.2a11.3,11.3,0,0,0-7.5,2.5c-26.5,21.4-53.1,42.6-79.7,63.9-1.3,1-2.5,2.1-3.8,3-4,2.8-8.3,3.5-12.7,1.2a11.5,11.5,0,0,1-6.6-10.9c-.1-16.7-.1-33.4-.1-50.1ZM191.9,120.5H96A11.9,11.9,0,0,0,83.9,131a12,12,0,0,0,9.3,13.1,23.3,23.3,0,0,0,5.3.3H288.3a11.6,11.6,0,0,0,10.4-7.9c3.1-8.1-2.9-16-12.1-16Zm-48.1,71.8H191c4.9,0,8.7-2,11.1-6.3a11.9,11.9,0,0,0-10.7-17.7H96l-3,.3a12,12,0,0,0,2.9,23.6Z" fill='#303030'/>
    <path d="M191.9,120.5h94.7c9.2,0,15.2,7.9,12.1,16a11.6,11.6,0,0,1-10.4,7.9H98.5a23.3,23.3,0,0,1-5.3-.3A12,12,0,0,1,83.9,131,11.9,11.9,0,0,1,96,120.5h95.9Z" style="fill:transparent"/>
    <path d="M143.8,192.3H95.9A12,12,0,0,1,93,168.7l3-.3h95.4a11.9,11.9,0,0,1,10.7,17.7c-2.4,4.3-6.2,6.3-11.1,6.3Z" style="fill:transparent"/>
  </g>
</svg>
