<svg id="add9b52b-d68e-4f9f-8af9-f207909a6547" data-name="a12e31e3-90a1-458f-8f8c-7c2396f14eb4" xmlns="http://www.w3.org/2000/svg" width="137.7mm" height="82mm" viewBox="0 0 390.5 232.4">
  <g>
    <path d="M391.2,119.3c-4.1,5.9-7.7,12.2-12.3,17.7-24.5,29.8-53.2,54.7-87.9,72.3a206.2,206.2,0,0,1-75.1,22.1c-51.5,4.9-98-8.8-140.6-37.2-27.7-18.4-50.7-41.7-70.9-68-4.9-6.5-4.9-13.5,0-20C27.6,75.8,54.7,49.7,87.8,30.3,115.2,14.2,144.6,4,176.3,1c46.2-4.4,89,6.4,128.7,29.9,32.9,19.4,59.7,45.4,82.7,75.6,1.5,2,2.3,4.4,3.5,6.7ZM196.8,198.2c46-.7,81.7-37.7,81.2-84.2-.4-43.7-38.4-80.4-82.6-79.8-46.4.7-81.9,37.4-81.5,84.2C114.3,162.3,152.3,198.9,196.8,198.2Z" transform="translate(-0.7)" fill='#303030'/>
    <path d="M196.8,198.2c-44.5.7-82.5-35.9-82.9-79.8-.4-46.8,35.1-83.5,81.5-84.2,44.2-.6,82.2,36.1,82.6,79.8C278.5,160.5,242.8,197.5,196.8,198.2Zm43.3-82c.2-23.9-19.4-44-43.1-44.2s-45.1,19.6-45.2,43.9,19.4,44.3,43.4,44.5a44.6,44.6,0,0,0,44.9-44.2Z" transform="translate(-0.7)" style="fill: transparent"/>
    <path d="M240.1,116.2a44.6,44.6,0,0,1-44.9,44.2c-24-.2-43.6-20.3-43.4-44.5S172.3,71.8,197,72,240.3,92.3,240.1,116.2Z" transform="translate(-0.7)" fill='#303030'/>
  </g>
</svg>
